<?xml version="1.0" encoding="UTF-8" standalone="no"?>
<svg
   xmlns:osb="http://www.openswatchbook.org/uri/2009/osb"
   xmlns:dc="http://purl.org/dc/elements/1.1/"
   xmlns:cc="http://creativecommons.org/ns#"
   xmlns:rdf="http://www.w3.org/1999/02/22-rdf-syntax-ns#"
   xmlns:svg="http://www.w3.org/2000/svg"
   xmlns="http://www.w3.org/2000/svg"
   xmlns:sodipodi="http://sodipodi.sourceforge.net/DTD/sodipodi-0.dtd"
   xmlns:inkscape="http://www.inkscape.org/namespaces/inkscape"
   aria-hidden="true"
   data-prefix="fas"
   data-icon="signature"
   class="svg-inline--fa fa-signature fa-w-16"
   role="img"
   viewBox="0 0 512 512"
   version="1.1"
   id="svg4"
   sodipodi:docname="tracey.svg"
   inkscape:version="0.92.3 (2405546, 2018-03-11)">
  <metadata
     id="metadata10">
    <rdf:RDF>
      <cc:Work
         rdf:about="">
        <dc:format>image/svg+xml</dc:format>
        <dc:type
           rdf:resource="http://purl.org/dc/dcmitype/StillImage" />
        <dc:title></dc:title>
      </cc:Work>
    </rdf:RDF>
  </metadata>
  <defs
     id="defs8">
    <inkscape:perspective
       sodipodi:type="inkscape:persp3d"
       inkscape:vp_x="70.508475 : 265.76271 : 1"
       inkscape:vp_y="0 : 1000 : 0"
       inkscape:vp_z="512 : 256 : 1"
       inkscape:persp3d-origin="256 : 170.66667 : 1"
       id="perspective6030" />
    <linearGradient
       id="linearGradient5982"
       osb:paint="solid">
      <stop
         style="stop-color:#7b0000;stop-opacity:1;"
         offset="0"
         id="stop5980" />
    </linearGradient>
  </defs>
  <sodipodi:namedview
     pagecolor="#ffffff"
     bordercolor="#666666"
     borderopacity="1"
     objecttolerance="10"
     gridtolerance="10"
     guidetolerance="10"
     inkscape:pageopacity="0"
     inkscape:pageshadow="2"
     inkscape:window-width="1366"
     inkscape:window-height="704"
     id="namedview6"
     showgrid="false"
     inkscape:zoom="0.921875"
     inkscape:cx="165.64894"
     inkscape:cy="278.37502"
     inkscape:window-x="0"
     inkscape:window-y="27"
     inkscape:window-maximized="1"
     inkscape:current-layer="svg4" />
  <path
     fill="currentColor"
     d="M496 320h-91.86c-9.27 0-19.72-11.31-25.78-28.52-15.23-43.36-48.11-70.3-85.8-70.3-30.84 0-58.47 18.05-76.11 49.23L194.8 106.5C188.84 81.08 169.34 64 146.28 64c-23.05 0-42.55 17.08-48.5 42.5L56.16 284.2C50.7 307.45 37.75 320 28.33 320H16c-8.84 0-16 7.16-16 16v32c0 8.84 7.16 16 16 16h12.33c41.97 0 78.19-34.23 90.14-85.2l23.84-101.78 29.25 222.11c1.98 15.05 13.82 27.45 28.94 28.75.99.09 1.96.13 2.93.13 14.08 0 26.64-9.27 30.69-22.95l33.03-112.34c5.88-16.72 15.84-27.52 25.41-27.52 9.58 0 19.55 10.8 25.78 28.52 15.23 43.36 48.11 70.3 85.8 70.3H496c8.84 0 16-7.16 16-16v-32c0-8.86-7.16-16.02-16-16.02z"
     id="path2"
     style="fill:#00c2d3;fill-opacity:1;stroke:#00003c;stroke-opacity:1;stroke-width:10;stroke-miterlimit:4;stroke-dasharray:none" />
</svg>
